<?xml version="1.0" encoding="UTF-8"?><svg xmlns="http://www.w3.org/2000/svg" xmlns:xlink="http://www.w3.org/1999/xlink" viewBox="0 0 541.03 58.54"><defs><style>.j{fill:url(#e);}.k{fill:url(#d);}.l{fill:url(#g);}.m{fill:url(#f);}.n{fill:url(#i);}.o{fill:url(#h);}</style><linearGradient id="d" x1="101.53" y1="29.89" x2="554.27" y2="34.4" gradientTransform="matrix(1, 0, 0, 1, 0, 0)" gradientUnits="userSpaceOnUse"><stop offset="0" stop-color="#fff"/><stop offset="1" stop-color="#fff" stop-opacity="0"/></linearGradient><linearGradient id="e" x1="101.53" y1="29" x2="554.28" y2="33.5" xlink:href="#d"/><linearGradient id="f" x1="101.54" y1="28.04" x2="554.29" y2="32.55" xlink:href="#d"/><linearGradient id="g" x1="101.55" y1="27.13" x2="554.3" y2="31.63" xlink:href="#d"/><linearGradient id="h" x1="101.56" y1="26.24" x2="554.31" y2="30.75" xlink:href="#d"/><linearGradient id="i" x1="101.57" y1="25.26" x2="554.32" y2="29.76" xlink:href="#d"/></defs><g id="a"/><g id="b"><g id="c"><g><path d="M40.68,5.99l5.3,.33,1.03,1.23-12.69,34.73L21.43,7.55l.94-1.23,5.13-.33V1.11H0V5.99l5.95,.9L25.29,57.51h11.29L55.5,7.14l5.95-1.15V1.11h-20.77V5.99Zm-11.95,46.52L11,6.11h5.23l-.46,.6,.96,2.59,12.89,34.73,3.15,8.49h-4.05Z" style="fill:url(#d);"/><path d="M130.75,.7h-12.11l-19.25,51.6-5.46,.33v4.89h20.28v-4.89l-5.38-.57-.86-1.03,4.23-12.44h17.9l4.43,12.52-.66,1.11-5.71,.41v4.89h27.22v-4.89l-5.13-.66L130.75,.7Zm-16.54,32.27l6.65-18.6,6.77,18.6h-13.42Zm25.3,19.55l.51-.87-.78-2.21-4.43-12.52-1.18-3.33h-.45l-.85-2.34-6.77-18.6-2.53-6.96h4.28l17.8,46.82h-5.6Z" style="fill:url(#e);"/><path d="M239.05,5.54l5.5,.78,1.48,1.6V40.77L221.93,3.37V1.11h-23.73V5.99l5.62,.33,1.11,1.23V50.7l-1.6,1.6-5.13,.49v4.72h21.18v-4.72l-5.62-.49-1.19-1.6V14.66l27.83,42.86h13.38V7.92l1.6-1.6,4.97-.78V1.11h-21.31V5.54Zm4.07,46.97l-26.35-40.58-3.78-5.82h4.77l24.08,37.36,5.83,9.04h-4.53Z" style="fill:url(#f);"/><path d="M306.17,5.99l6.08,.33,1.31,1.23V50.7l-1.31,1.6-6.08,.33v4.89h30.01v-4.89l-6.2-.33-1.35-1.6V7.55l1.35-1.23,6.2-.33V1.11h-30.01V5.99Zm12.39,46.5V6.11h5.07V52.51h-5.09l.02-.03Z" style="fill:url(#g);"/><path d="M412.54,23.81c-.41-.19-1.01-.45-1.81-.78-6.92-2.9-10.39-5.93-10.39-9.07,0-2.3,.9-4.12,2.71-5.46,1.81-1.34,4.3-2.01,7.47-2.01,.93,0,1.81,.06,2.65,.19,.83,.12,1.63,.31,2.4,.55l1.03,1.03,1.68,9.32h7.8V3.37c-3.12-1.09-6.2-1.93-9.24-2.5s-5.95-.86-8.74-.86c-6.65,0-11.96,1.62-15.93,4.84-3.97,3.23-5.95,7.5-5.95,12.81,0,3.59,1.01,6.66,3.04,9.22,2.03,2.56,5.21,4.81,9.57,6.75,1.12,.52,2.72,1.16,4.8,1.93,4.24,1.64,7.02,3.19,8.33,4.64,.49,.57,.87,1.21,1.13,1.91,.26,.7,.39,1.43,.39,2.2,0,2.35-.96,4.24-2.87,5.64-1.92,1.41-4.49,2.11-7.72,2.11-1.09,0-2.17-.04-3.22-.12s-2.11-.21-3.18-.37l-1.19-1.27-1.93-10.35h-7.8v15.56c3.86,1.04,7.26,1.81,10.2,2.3,2.94,.49,5.64,.74,8.11,.74,7.33,0,13.16-1.64,17.49-4.93s6.49-7.68,6.49-13.18c0-3.75-1.01-6.81-3.02-9.18-2.01-2.37-6.11-4.85-12.3-7.45Zm5.8,25.82c-.53,.4-1.09,.77-1.69,1.11,1.21-1.87,1.83-4.05,1.83-6.45,0-1.36-.24-2.69-.71-3.95-.47-1.25-1.14-2.39-2.02-3.41l-.05-.05-.05-.05c-1.89-2.08-5.14-3.97-10.23-5.95h-.04l-.04-.03c-1.94-.72-3.43-1.31-4.43-1.77l-.03-.02h-.03c-3.59-1.62-6.17-3.4-7.68-5.31-1.32-1.66-1.96-3.66-1.96-6.11,0-3.81,1.31-6.65,4.11-8.93,.59-.48,1.23-.92,1.92-1.3-1.25,1.87-1.9,4.08-1.9,6.54,0,1.99,0,8.05,13.47,13.69,.89,.37,1.36,.58,1.61,.69l.09,.04,.09,.04c7.12,2.99,9.59,5.09,10.42,6.08,1.23,1.45,1.83,3.39,1.83,5.94,0,3.94-1.43,6.86-4.51,9.2Z" style="fill:url(#h);"/><path d="M535.82,6.32l5.21-.33V1.11h-28.08V5.99l5.13,.33,1.35,1.6V24.8h-21.1V7.92l1.31-1.6,5.05-.33V1.11h-27.92V5.99l5.13,.33,1.44,1.6V50.7l-1.44,1.6-5.13,.33v4.89h27.92v-4.89l-5.05-.33-1.31-1.6V31.04h21.1v19.66l-1.35,1.6-5.13,.33v4.89h28.08v-4.89l-5.21-.33-1.35-1.6V7.92l1.35-1.6Zm-42.46,46.19h-5.01V6.11h5.01l-.02,.03V52.49l.02,.03Zm36.1-44.59V52.51h-5.03V6.11h5.03v1.81Z" style="fill:url(#i);"/></g></g></g></svg>